[img]http://img542.imageshack.us/img542/7972/posterps.jpg[/img]
[code]
Beastly 2011 TS READNFO XViD - IMAGiNE

Ripper ...........: IMAGiNE                                        IMDB Rating.......:4.8/10     

                        

Video Codec.......: XVID                                         Release Date......:05/05/11

Audio Codec.......:MP3                                           Theatre Date......:04/03/11

Audio Bitrate.....:128                                              Runtime.......:1h 22mn

Subtitles.........:NIL                                                 

Language..........:ENGLISH
Resolution...... 720 x 304                                      IMDb URL.......... 
 
http://www.imdb.com/title/tt1152398/



DETAILS:

Video
ID                               : 0
Format                           : MPEG-4 Visual
Format profile                   : Advanced Simple@L5
Format settings, BVOP            : 2
Format settings, QPel            : No
Format settings, GMC             : No warppoints
Format settings, Matrix          : Default (H.263)
Muxing mode                      : Packed bitstream
Codec ID                         : XVID
Codec ID/Hint                    : XviD
Duration                         : 1h 22mn
Bit rate                         : 2 250 Kbps
Width                            : 720 pixels
Height                           : 320 pixels
Display aspect ratio             : 2.25:1
Frame rate                       : 25.000 fps
Color space                      : YUV
Chroma subsampling               : 4:2:0
Bit depth                        : 8 bits
Scan type                        : Progressive
Compression mode                 : Lossy
Bits/(Pixel*Frame)               : 0.391
Stream size                      : 1.30 GiB (94%)
Writing library                  : XviD 1.1.0 Beta2 (UTC 2005-04-04)

Audio
ID                               : 1
Format                           : MPEG Audio
Format version                   : Version 1
Format profile                   : Layer 3
Mode                             : Joint stereo
Mode extension                   : MS Stereo
Codec ID                         : 55
Codec ID/Hint                    : MP3
Duration                         : 1h 22mn
Bit rate mode                    : Constant
Bit rate                         : 128 Kbps
Channel(s)                       : 2 channels
Sampling rate                    : 44.1 KHz
Compression mode                 : Lossy
Stream size                      : 75.7 MiB (5%)
Alignment                        : Split accross interleaves
Interleave, duration             : 40 ms (1.00 video frame)
Writing library                  : LAME3.98r

Plot:
A modern-day take on the "Beauty and the Beast" tale where a New York teen is transformed into a 

hideous monster in order to find true love.

SOURCES:
VIDEO: FLOPPYDiSK ...Thanks 
AUDIO: IFLIX ........Thanks m8ty

NOTES:
IMAGiNE bringing you another release..........Beastly

Ok heres our Beastly TS Now there are many different releases of the ppvrip so we opted to do 

something different...
So we ran some filters over the video, took the studio audio from the ppv and resynced and then 

muxed over this encode.


Enjoy folks 
[/code]
Screens:
[img]http://img62.imageshack.us/img62/4425/70418452.jpg[/img]
[img]http://img854.imageshack.us/img854/2218/26453666.jpg[/img]
[img]http://img685.imageshack.us/img685/3172/20886058.jpg[/img]
[img]http://img811.imageshack.us/img811/7711/14060145.jpg[/img]
[img]http://img834.imageshack.us/img834/1359/24899789.jpg[/img]